<svg width="22" height="20" viewBox="0 0 22 20" fill="none" xmlns="http://www.w3.org/2000/svg">
<path d="M5.39378 10L2.6665 12.6667L5.39378 15.3333V10Z" fill="#E96424"/>
<path d="M2.66667 7.33203L0 9.9987L2.66667 12.6654V7.33203Z" fill="#1D75B9"/>
<path d="M2.66699 7.33203L5.39426 9.9987L2.66699 12.6654V7.33203Z" fill="#2FA6DE"/>
<path d="M5.39404 10L8.06071 12.6667L5.39404 15.3333V10Z" fill="#F39623"/>
<path d="M0 4.66797L2.66667 7.33464L0 10.0013V4.66797Z" fill="#803288"/>
<path d="M2.66667 1.93945L0 4.66673L2.66667 7.33339V1.93945Z" fill="#9C2322"/>
<path d="M2.6665 1.93945L5.39378 4.66673L2.6665 7.33339V1.93945Z" fill="#E3272B"/>
<path d="M8.06044 1.93945L5.39378 4.66673L2.6665 1.93945H8.06044Z" fill="#CDD854"/>
<path d="M8.06044 1.93939L6.54529 0.484848C6.24226 0.181818 5.81802 0 5.39378 0C4.90893 0 4.48469 0.181818 4.18166 0.484848L2.6665 1.93939H8.06044Z" fill="#78B745"/>
<path d="M8.06071 18.0619L5.39404 15.3346L8.06071 12.668V18.0619Z" fill="#9C2322"/>
<path d="M8.06055 18.0619L10.7272 15.3346L8.06055 12.668V18.0619Z" fill="#E3272B"/>
<path d="M16.0605 10L18.7878 12.6667L16.0605 15.3333V10Z" fill="#9C2322"/>
<path d="M18.7881 7.33203L21.4548 9.9987L18.7881 12.6654V7.33203Z" fill="#E96424"/>
<path d="M18.7878 7.33203L16.0605 9.9987L18.7878 12.6654V7.33203Z" fill="#F39623"/>
<path d="M16.0607 10L13.394 12.6667L16.0607 15.3333V10Z" fill="#E3272B"/>
<path d="M21.4548 4.66797L18.7881 7.33464L21.4548 10.0013V4.66797Z" fill="#803288"/>
<path d="M18.7881 1.93945L21.4548 4.66673L18.7881 7.33339V1.93945Z" fill="#1D75B9"/>
<path d="M18.7878 1.93945L16.0605 4.66673L18.7878 7.33339V1.93945Z" fill="#2FA6DE"/>
<path d="M13.394 1.93945L16.0607 4.66673L18.788 1.93945H13.394Z" fill="#CDD854"/>
<path d="M13.394 1.93939L14.9092 0.484848C15.2122 0.181818 15.6365 0 16.1213 0C16.6062 0 17.0304 0.181818 17.3334 0.484848L18.8486 1.93939H13.394Z" fill="#78B745"/>
<path d="M13.394 18.0619L16.0607 15.3346L13.394 12.668V18.0619Z" fill="#1D75B9"/>
<path d="M13.3942 18.0619L10.7275 15.3346L13.3942 12.668V18.0619Z" fill="#2FA6DE"/>
<path d="M13.3939 18.0593L10.7272 15.332L8.06055 18.0593H13.3939Z" fill="#CDD854"/>
<path d="M16.0604 4.66673L13.3937 1.93945L10.7271 4.66673H16.0604Z" fill="#3E8891"/>
<path d="M13.3939 18.0605L11.9394 19.5151C11.6364 19.8181 11.2121 19.9999 10.7273 19.9999C10.2424 19.9999 9.81818 19.8181 9.51515 19.5151L8 18.0605H13.3939Z" fill="#78B745"/>
<path d="M13.7474 7.68819L16.0605 5.37508L18.0201 7.33464L13.3939 11.9609L8.76765 7.33464L10.7272 5.37508L13.0403 7.68819L13.3939 8.04174L13.7474 7.68819Z" fill="white" stroke="#205D63"/>
</svg>
